<svg id="Layer_1" data-name="Layer 1" xmlns="http://www.w3.org/2000/svg" width="35" height="35" viewBox="0 0 35 35"><defs><style>.cls-1{fill:#fff;}</style></defs><title>incubating emerging</title><path d="M10.07,18.11,9.73,18a6.6,6.6,0,0,1-1.37-.57l-.3-.17.1-1a5.06,5.06,0,0,1-.9-.89l-1,.09-.17-.31a6.23,6.23,0,0,1-.56-1.38l-.09-.33.77-.64v0h0V11.69l.54-.06v.06h.53v.53a4.15,4.15,0,0,0,.07.7l.06.32-.71.58a4.4,4.4,0,0,0,.21.5l.91-.08L8,14.5A4,4,0,0,0,9,15.56l.26.18-.09.93a4.19,4.19,0,0,0,.49.2l.6-.71.31.05a3.84,3.84,0,0,0,1.51,0l.31-.05.59.71a4.19,4.19,0,0,0,.49-.2l-.08-.93.26-.18a4,4,0,0,0,1.07-1.06l.17-.26.92.08c.07-.16.14-.33.2-.5l-.7-.59.06-.31a4,4,0,0,0,.06-.7v-.53H16v-.06h.54v1.08h0a.28.28,0,0,1,0,.09l.77.64-.09.33a5.79,5.79,0,0,1-.56,1.38l-.17.31-1-.09a5.35,5.35,0,0,1-.89.89l.09,1-.3.17A6.38,6.38,0,0,1,13,18l-.33.09L12,17.32a4.5,4.5,0,0,1-1.27,0Zm1.28-2.81a3.1,3.1,0,0,1-3.1-3.1H9.33a2,2,0,0,0,4.05,0h1.07A3.1,3.1,0,0,1,11.35,15.3Z"/><path d="M15.6,12.81v-.06h-.11l0-.53a3.33,3.33,0,0,0-.07-.7l-.05-.31.7-.59c-.06-.17-.13-.34-.2-.5l-.92.09L14.75,10a4,4,0,0,0-1.07-1.07l-.26-.18.08-.93L13,7.57l-.59.72-.31-.06a3.84,3.84,0,0,0-1.51,0l-.31.06-.6-.72-.49.2.09.93L9,8.88A4,4,0,0,0,8,10l-.18.26-.91-.09a4.4,4.4,0,0,0-.21.5l.71.59-.06.31a4.15,4.15,0,0,0-.07.7v.53H6.7V12.7l-.09.05-.45-.54v-.53h0v0L5.43,11l.09-.33a6.23,6.23,0,0,1,.56-1.38L6.26,9l1,.1a4.79,4.79,0,0,1,.9-.9l-.1-1L8.36,7a6.07,6.07,0,0,1,1.37-.56l.34-.1.65.79a4.43,4.43,0,0,1,1.26,0l.66-.79.33.1A6.07,6.07,0,0,1,14.34,7l.3.18-.09,1a5.06,5.06,0,0,1,.89.9l1-.1.17.31a5.79,5.79,0,0,1,.56,1.38l.09.33-.77.64v0h0v1Zm-1.15-.57H13.38a2,2,0,0,0-4.05,0H8.25a3.1,3.1,0,0,1,6.2,0Z"/><path d="M17.44,21.15H5.26L5.12,21A10.35,10.35,0,1,1,21.7,12.79,10.27,10.27,0,0,1,17.58,21ZM5.63,20.07H17.08a9.19,9.19,0,0,0,3.55-7.28,9.28,9.28,0,1,0-18.55,0A9.19,9.19,0,0,0,5.63,20.07Z"/><rect x="5.7" y="22.82" width="11.54" height="1.08"/><rect x="5.7" y="25.23" width="11.54" height="1.08"/><rect x="5.7" y="27.63" width="11.54" height="1.08"/><rect x="8.43" y="31.24" width="6.06" height="1.08"/><polygon points="12.87 29.26 17.23 31.78 12.87 34.3 12.87 29.26"/><polygon points="10.06 29.26 5.7 31.78 10.06 34.3 10.06 29.26"/><path class="cls-1" d="M9.69,2.9a1.66,1.66,0,1,1,1.66,1.65A1.66,1.66,0,0,1,9.69,2.9Z"/><path d="M11.35,5.09a2.2,2.2,0,1,1,2.2-2.19A2.19,2.19,0,0,1,11.35,5.09Zm0-3.31A1.12,1.12,0,1,0,12.47,2.9,1.12,1.12,0,0,0,11.35,1.78Z"/></svg>