<svg id="Layer_1" data-name="Layer 1" xmlns="http://www.w3.org/2000/svg" width="35" height="35" viewBox="0 0 35 35"><defs><style>.cls-1{fill:#fff;}</style></defs><title>insight</title><path class="cls-1" d="M16.23,16.06a1.54,1.54,0,1,1-1.53,1.53A1.53,1.53,0,0,1,16.23,16.06Z"/><path d="M16.23,19.62a2,2,0,1,1,2-2A2,2,0,0,1,16.23,19.62Zm0-3.06a1,1,0,1,0,1,1A1,1,0,0,0,16.23,16.56Z"/><path d="M16.24,23.06a10,10,0,0,1-8.79-5.23l-.13-.24.13-.23a10,10,0,0,1,17.57,0l.13.23-.13.24A10,10,0,0,1,16.24,23.06ZM8.46,17.59a9,9,0,0,0,15.55,0,9,9,0,0,0-15.55,0Z"/><polygon points="28.27 19.94 32.3 17.62 28.27 15.29 28.27 19.94"/><rect x="24.06" y="17.12" width="5.09" height="1"/><polygon points="4.19 15.29 0.16 17.62 4.19 19.94 4.19 15.29"/><rect x="3.31" y="17.12" width="5.09" height="1"/><polygon points="18.58 8.24 16.25 4.21 13.93 8.24 18.58 8.24"/><rect x="15.76" y="7.36" width="1" height="5.09"/><polygon points="13.93 26.76 16.25 30.79 18.58 26.76 13.93 26.76"/><rect x="15.76" y="22.55" width="1" height="5.09"/></svg>