<svg id="Layer_1" data-name="Layer 1" xmlns="http://www.w3.org/2000/svg" width="35" height="35" viewBox="0 0 35 35"><defs><style>.cls-1{fill:#fff;}</style></defs><title>accelerate</title><path d="M19.43,34l-.74-.89a5.6,5.6,0,0,1-1.53,0l-.74.89-.31-.09a6.68,6.68,0,0,1-1.53-.64l-.28-.16L14.4,32a5.92,5.92,0,0,1-1.09-1.09L12.18,31,12,30.72a6.92,6.92,0,0,1-.63-1.54l-.08-.31.87-.72,0-.21h0v-1l.5-.06v.06h.49v.5a5.69,5.69,0,0,0,.08.82l.06.29-.81.67a5.84,5.84,0,0,0,.29.73l1.06-.1.16.25a4.75,4.75,0,0,0,1.25,1.24l.24.17-.1,1.07a5.7,5.7,0,0,0,.72.29l.69-.82.28.05a4.79,4.79,0,0,0,1.77,0l.28-.05.69.82a5.7,5.7,0,0,0,.72-.29l-.1-1.07.24-.17a4.75,4.75,0,0,0,1.25-1.24l.16-.25,1.06.1a5.84,5.84,0,0,0,.29-.73l-.81-.67.06-.29a5.69,5.69,0,0,0,.08-.82v-.5h.5v-.06h.49v1h0a1.24,1.24,0,0,1,0,.27l.87.72-.08.31a6.55,6.55,0,0,1-.63,1.54l-.16.29-1.13-.11A5.92,5.92,0,0,1,21.45,32l.1,1.14-.28.16a6.27,6.27,0,0,1-1.53.64Zm-1.5-3.19a3.42,3.42,0,0,1-3.42-3.42h1a2.43,2.43,0,0,0,4.85,0h1A3.42,3.42,0,0,1,17.93,30.83Z"/><path d="M22.87,28l0-.06h-.11v-.49a5.69,5.69,0,0,0-.08-.83l-.06-.28.81-.68a6.52,6.52,0,0,0-.29-.73l-1.06.1-.16-.24a5,5,0,0,0-1.25-1.25l-.24-.16.1-1.07a4.55,4.55,0,0,0-.72-.3l-.69.83-.28-.06a4.79,4.79,0,0,0-1.77,0l-.28.06L16.07,22a4.55,4.55,0,0,0-.72.3l.1,1.07-.24.16A5,5,0,0,0,14,24.78L13.8,25l-1.06-.1a5.84,5.84,0,0,0-.29.73l.81.68-.06.28a5.83,5.83,0,0,0-.08.83v.49h-.5v-.05l-.08.05-.42-.5,0-.5,0-.21L11.31,26l.08-.3A6.81,6.81,0,0,1,12,24.15l.16-.28,1.13.1a6.25,6.25,0,0,1,1.09-1.09l-.1-1.14.28-.16a6.87,6.87,0,0,1,1.53-.64l.31-.08.74.88a5.6,5.6,0,0,1,1.53,0l.74-.88.31.08a6.87,6.87,0,0,1,1.53.64l.28.16-.1,1.14A6.25,6.25,0,0,1,22.54,24l1.13-.1.16.28a6.81,6.81,0,0,1,.63,1.55l.08.3-.87.73,0,.2h0v.93Zm-1.53-.53h-1a2.43,2.43,0,0,0-4.85,0h-1a3.42,3.42,0,1,1,6.83,0Z"/><path d="M4.62,27.69a12.11,12.11,0,1,1,18.05-3l-.85-.53a11,11,0,0,0,1.66-5.83A11.12,11.12,0,1,0,5.26,26.92Z"/><path d="M14,7.35H10.75V1H14Zm-2.22-1H13V2H11.75V6.35Z"/><rect x="8.46" y="0.98" width="7.8" height="1"/><polygon points="11.11 18.09 5.29 14.6 5.81 13.74 11.63 17.24 11.11 18.09"/><polygon points="5.41 9.02 2.9 5.98 3.67 5.35 6.18 8.38 5.41 9.02"/><rect x="1.12" y="5.18" width="4.29" height="1" transform="translate(-2.88 3.41) rotate(-39.81)"/><polygon points="19.34 9.23 18.57 8.59 21.36 5.22 22.13 5.85 19.34 9.23"/><rect x="21.15" y="3.53" width="1" height="4.29" transform="translate(3.43 18.67) rotate(-50.19)"/><path class="cls-1" d="M10.83,18.11a1.53,1.53,0,1,1,1.53,1.53A1.53,1.53,0,0,1,10.83,18.11Z"/><path d="M12.36,20.14a2,2,0,1,1,2-2A2,2,0,0,1,12.36,20.14Zm0-3.07a1,1,0,0,0,0,2.07,1,1,0,1,0,0-2.07Z"/><polygon points="3.29 28.93 7.81 30.04 6.51 25.57 3.29 28.93"/></svg>