<svg id="Layer_1" data-name="Layer 1" xmlns="http://www.w3.org/2000/svg" width="35" height="35" viewBox="0 0 35 35"><defs><style>.cls-1{fill:#fff;}.cls-2{fill:none;}</style></defs><title>assure</title><path d="M14.49,21.72a.51.51,0,0,1-.29-.08l-1.7-1-2,.23a.53.53,0,0,1-.52-.23L8.87,19,7,18.43A.56.56,0,0,1,6.59,18l-.38-2L4.72,14.75a.54.54,0,0,1-.18-.53L5,12.28l-.83-1.8a.54.54,0,0,1,.06-.56L5.4,8.33l0-2a.55.55,0,0,1,.28-.49l1.74-1,.78-1.83a.54.54,0,0,1,.45-.33l2-.18L12.05,1.2a.57.57,0,0,1,.56-.11l1.88.64,1.87-.64a.57.57,0,0,1,.56.11l1.45,1.35,2,.18a.56.56,0,0,1,.45.33l.78,1.83,1.74,1a.55.55,0,0,1,.28.49l0,2,1.19,1.59a.54.54,0,0,1,.06.56L24,12.28l.44,1.94a.54.54,0,0,1-.18.53l-1.49,1.31-.38,2a.56.56,0,0,1-.38.42L20.1,19,19,20.63a.53.53,0,0,1-.52.23l-2-.23-1.7,1A.5.5,0,0,1,14.49,21.72Zm-1.87-2.21a.46.46,0,0,1,.28.08l1.59.94,1.58-.94a.52.52,0,0,1,.35-.08l1.83.22,1.06-1.51A.56.56,0,0,1,19.6,18l1.76-.54.36-1.81a.53.53,0,0,1,.17-.31l1.39-1.21-.41-1.8a.53.53,0,0,1,0-.35l.78-1.68L22.58,8.84a.6.6,0,0,1-.11-.34l0-1.85-1.62-.89a.61.61,0,0,1-.23-.27L19.92,3.8l-1.83-.17a.55.55,0,0,1-.33-.14L16.41,2.23l-1.75.6a.53.53,0,0,1-.35,0l-1.75-.6L11.21,3.49a.55.55,0,0,1-.33.14L9.05,3.8,8.32,5.49a.57.57,0,0,1-.24.27l-1.61.89,0,1.85a.6.6,0,0,1-.11.34L5.28,10.31,6.06,12a.6.6,0,0,1,0,.35l-.41,1.8,1.39,1.21a.53.53,0,0,1,.17.31l.36,1.81L9.37,18a.56.56,0,0,1,.29.21l1.06,1.51,1.83-.22Z"/><path d="M14.49,18.24a6.85,6.85,0,1,1,6.84-6.85A6.86,6.86,0,0,1,14.49,18.24Zm0-12.6a5.75,5.75,0,1,0,5.74,5.75A5.76,5.76,0,0,0,14.49,5.64Z"/><polygon points="7.15 25.25 11.39 22.35 11.78 27.47 7.15 25.25"/><polygon points="6.32 33.93 4.66 29.4 0.07 30.94 6.54 17.63 7.52 18.11 2.2 29.06 5.33 28.01 6.47 31.13 10 23.86 10.99 24.34 6.32 33.93"/><polygon points="22.39 33.94 15.85 20.3 16.85 19.82 22.25 31.11 23.39 28.01 26.51 29.06 21.19 18.11 22.18 17.63 28.65 30.94 24.05 29.4 22.39 33.94"/><path class="cls-1" d="M7.15,3.3A1.69,1.69,0,1,1,8.84,5,1.69,1.69,0,0,1,7.15,3.3Z"/><path d="M8.84,5.54A2.24,2.24,0,1,1,11.08,3.3,2.24,2.24,0,0,1,8.84,5.54Zm0-3.38A1.14,1.14,0,1,0,10,3.3,1.14,1.14,0,0,0,8.84,2.16Z"/><polyline class="cls-2" points="18.44 8.76 13.18 14.02 10.65 11.49"/><polygon points="13.18 14.79 10.27 11.88 11.04 11.1 13.18 13.24 18.05 8.37 18.83 9.15 13.18 14.79"/></svg>