<?xml version="1.0" encoding="utf-8"?>
<!-- Generator: Adobe Illustrator 22.0.1, SVG Export Plug-In . SVG Version: 6.00 Build 0)  -->
<svg version="1.1" id="Layer_1" xmlns="http://www.w3.org/2000/svg" xmlns:xlink="http://www.w3.org/1999/xlink" x="0px" y="0px"
	 width="35px" height="35px" viewBox="0 0 35 35" style="enable-background:new 0 0 35 35;" xml:space="preserve">
<style type="text/css">
	.st0{fill:none;stroke:#878382;stroke-width:1.7141;stroke-miterlimit:10;}
	.st1{fill:#FFFFFF;}
</style>
<title>accelerate</title>
<g>
	<g>
		<g>
			<g>
				<g>
					<g>
						<path d="M12.7,12.4l-0.3-0.1c-0.4-0.1-0.7-0.2-1-0.4l-0.3-0.2l0.1-0.7c-0.2-0.2-0.4-0.4-0.6-0.6l-0.7,0.1l-0.2-0.3
							c-0.2-0.3-0.3-0.7-0.4-1L9.2,8.8l0.6-0.5c0-0.1,0-0.2,0-0.3l0,0l0-0.1l0.5,0l0.5,0.1L10.2,8l0.5,0c0,0.2,0,0.4,0,0.5l0.1,0.3
							l-0.5,0.4c0,0.1,0,0.1,0.1,0.2l0.6-0.1l0.2,0.2c0.2,0.3,0.4,0.5,0.7,0.7l0.2,0.2l-0.1,0.7c0.1,0,0.1,0.1,0.2,0.1l0.4-0.5
							l0.3,0.1c0.4,0.1,0.7,0.1,1,0l0.3-0.1l0.4,0.5c0.1,0,0.1,0,0.2-0.1l-0.1-0.7l0.2-0.2c0.3-0.2,0.5-0.4,0.7-0.7l0.2-0.2l0.6,0.1
							c0-0.1,0.1-0.1,0.1-0.2l-0.5-0.4l0.1-0.3c0-0.2,0-0.3,0-0.5l0-0.5h0.5l0,0.5l0.5,0v0.4L18,8.8l-0.1,0.3
							c-0.1,0.4-0.2,0.7-0.4,1l-0.2,0.3l-0.7-0.1c-0.2,0.2-0.4,0.4-0.6,0.6l0.1,0.7l-0.3,0.2c-0.3,0.2-0.7,0.3-1,0.4l-0.3,0.1
							L14,11.8c-0.3,0-0.5,0-0.8,0L12.7,12.4z M13.6,10.3c-1.3,0-2.4-1.1-2.4-2.4h1c0,0.7,0.6,1.3,1.3,1.3s1.3-0.6,1.3-1.3h1
							C15.9,9.3,14.9,10.3,13.6,10.3z"/>
					</g>
				</g>
			</g>
		</g>
		<g>
			<g>
				<g>
					<g>
						<path d="M9.7,8l0.4,0L9.7,8c0-0.1,0-0.2,0-0.4L9.2,7.2l0.1-0.3c0.1-0.4,0.2-0.7,0.4-1l0.2-0.3l0.7,0.1
							c0.2-0.2,0.4-0.4,0.6-0.6l-0.1-0.7l0.3-0.2c0.3-0.2,0.7-0.3,1-0.4l0.3-0.1l0.5,0.6c0.3,0,0.5,0,0.8,0l0.5-0.6l0.3,0.1
							c0.4,0.1,0.7,0.2,1,0.4l0.3,0.2L16,5c0.2,0.2,0.4,0.4,0.6,0.6l0.7-0.1l0.2,0.3c0.2,0.3,0.3,0.7,0.4,1L18,7.2l-0.6,0.5
							c0,0.1,0,0.2,0,0.4l-1,0c0-0.2,0-0.3,0-0.5l-0.1-0.3l0.5-0.4c0-0.1,0-0.1-0.1-0.2l-0.6,0.1l-0.2-0.2c-0.2-0.3-0.4-0.5-0.7-0.7
							l-0.2-0.2L15,4.9c-0.1,0-0.1-0.1-0.2-0.1l-0.4,0.5l-0.3-0.1c-0.4-0.1-0.7-0.1-1,0l-0.3,0.1l-0.4-0.5c-0.1,0-0.1,0-0.2,0.1
							l0.1,0.7L12,5.7c-0.3,0.2-0.5,0.4-0.7,0.7l-0.2,0.2l-0.6-0.1c0,0.1-0.1,0.1-0.1,0.2l0.5,0.4l-0.1,0.3c0,0.2,0,0.3,0,0.5l0,0.5
							h-0.1 M15.9,8h-1c0-0.7-0.6-1.3-1.3-1.3S12.2,7.3,12.2,8h-1c0-1.3,1.1-2.4,2.4-2.4S15.9,6.7,15.9,8z"/>
					</g>
				</g>
			</g>
		</g>
	</g>
	<g>
		<polygon points="5.2,0.7 1,3.1 5.2,5.5 		"/>
	</g>
	<g>
		<polygon points="23.8,8.8 19,9.3 21.9,13.2 		"/>
	</g>
	<g>
		<path class="st0" d="M9.5,3"/>
	</g>
	<g>
		<path class="st0" d="M5.3,15.8"/>
	</g>
	<g>
		<path d="M20.2,32.7H4.6v-1h15.6c0.4,0,0.7-0.3,0.7-0.7v-3c0-0.7,0.5-1.2,1.2-1.2h2.3c0.5,0,0.9-0.2,1.3-0.5
			c0.3-0.3,0.5-0.8,0.5-1.3l0-4.2c0-0.3,0.1-0.6,0.4-0.9c0.2-0.2,0.5-0.4,0.9-0.4h1.2c0.1,0,0.2-0.1,0.2-0.1c0,0,0.1-0.1,0-0.2
			l-1.3-2.7c-0.7-1.4-1.1-2.9-1.3-4.4c-1.1-9-10-8.5-10.3-8.5l-11.3,0v-1h11.2c0.1,0,10.2-0.6,11.4,9.4c0.2,1.4,0.6,2.8,1.2,4.1
			l1.3,2.7c0.2,0.4,0.2,0.9-0.1,1.2c-0.2,0.4-0.6,0.6-1.1,0.6h-1.2c-0.1,0-0.1,0-0.1,0.1c0,0-0.1,0.1-0.1,0.1l0,4.2
			c0,0.8-0.3,1.5-0.8,2c-0.5,0.5-1.2,0.8-2,0.8h-2.3c-0.1,0-0.2,0.1-0.2,0.2v3C22,31.9,21.2,32.7,20.2,32.7z"/>
	</g>
	<g>
		<path class="st1" d="M3.1,32.2c0-0.9,0.7-1.6,1.6-1.6c0.9,0,1.6,0.7,1.6,1.6c0,0.9-0.7,1.6-1.6,1.6C3.8,33.8,3.1,33.1,3.1,32.2z"
			/>
		<path d="M4.7,34.3c-1.2,0-2.1-0.9-2.1-2.1c0-1.2,0.9-2.1,2.1-2.1s2.1,0.9,2.1,2.1C6.8,33.4,5.8,34.3,4.7,34.3z M4.7,31.1
			c-0.6,0-1.1,0.5-1.1,1.1c0,0.6,0.5,1.1,1.1,1.1s1.1-0.5,1.1-1.1C5.7,31.6,5.3,31.1,4.7,31.1z"/>
	</g>
	<g>
		<polygon points="5.6,18.1 5,17.2 11.5,13.1 13,14.9 21.3,9.9 21.8,10.8 12.7,16.2 11.3,14.5 		"/>
	</g>
	<g>
		<path class="st1" d="M3.9,17.7c0-0.9,0.7-1.6,1.6-1.6c0.9,0,1.6,0.7,1.6,1.6s-0.7,1.6-1.6,1.6C4.6,19.3,3.9,18.6,3.9,17.7z"/>
		<path d="M5.5,19.8c-1.2,0-2.1-0.9-2.1-2.1c0-1.2,0.9-2.1,2.1-2.1s2.1,0.9,2.1,2.1C7.6,18.8,6.6,19.8,5.5,19.8z M5.5,16.6
			c-0.6,0-1.1,0.5-1.1,1.1s0.5,1.1,1.1,1.1s1.1-0.5,1.1-1.1S6.1,16.6,5.5,16.6z"/>
	</g>
</g>
</svg>
