<?xml version="1.0" encoding="utf-8"?>
<!-- Generator: Adobe Illustrator 22.0.1, SVG Export Plug-In . SVG Version: 6.00 Build 0)  -->
<svg version="1.1" id="Layer_1" xmlns="http://www.w3.org/2000/svg" xmlns:xlink="http://www.w3.org/1999/xlink" x="0px" y="0px"
	 width="35px" height="35px" viewBox="0 0 35 35" style="enable-background:new 0 0 35 35;" xml:space="preserve">
<style type="text/css">
	.st0{fill:#FFFFFF;}
</style>
<title>accelerate</title>
<g>
	<g>
		<polygon points="24.1,26 19.6,28.7 24.1,31.3 		"/>
	</g>
	<g>
		<path d="M3.9,9.4C2.3,9.4,1,8.1,1,6.5s1.3-2.9,2.9-2.9c1.6,0,2.9,1.3,2.9,2.9C6.8,8.1,5.5,9.4,3.9,9.4z M3.9,4.8
			c-1,0-1.8,0.8-1.8,1.8S3,8.3,3.9,8.3c1,0,1.8-0.8,1.8-1.8S4.9,4.8,3.9,4.8z"/>
	</g>
	<g>
		<g>
			<path d="M22.6,9.4c-1.6,0-2.9-1.3-2.9-2.9s1.3-2.9,2.9-2.9c1.6,0,2.9,1.3,2.9,2.9C25.5,8.1,24.2,9.4,22.6,9.4z M22.6,4.8
				c-1,0-1.8,0.8-1.8,1.8s0.8,1.8,1.8,1.8c1,0,1.8-0.8,1.8-1.8S23.6,4.8,22.6,4.8z"/>
		</g>
		<g>
			<path d="M27.5,17.9h-9.8c-0.3,0-0.6-0.3-0.6-0.6v-3.1c0-2.3,1.8-4.1,4.1-4.1H24c2.3,0,4.1,1.8,4.1,4.1v3.1
				C28.1,17.6,27.8,17.9,27.5,17.9z M18.3,16.7H27v-2.6c0-1.6-1.3-3-3-3h-2.8c-1.6,0-3,1.3-3,3L18.3,16.7L18.3,16.7z"/>
		</g>
	</g>
	<g>
		<path d="M31.8,29.3h-9.7c-0.3,0-0.6-0.3-0.6-0.6c0-0.3,0.3-0.6,0.6-0.6h9.1V17.9H14v10.3h2c0.3,0,0.6,0.3,0.6,0.6
			c0,0.3-0.3,0.6-0.6,0.6h-2.6c-0.3,0-0.6-0.3-0.6-0.6V17.3c0-0.3,0.3-0.6,0.6-0.6h18.4c0.3,0,0.6,0.3,0.6,0.6v11.4
			C32.4,29,32.1,29.3,31.8,29.3z"/>
	</g>
	<g>
		<path d="M10.5,28.2c-0.3,0-0.6-0.3-0.6-0.6v-5.3c0-1-0.8-1.1-1.1-1.1H4.3c-2.9,0-3.7-2.4-3.7-3.7v-4.1c0-1.8,1.5-3.3,3.3-3.3
			c1.8,0,3.3,1.5,3.3,3.3v4.1c0,0.3-0.3,0.6-0.6,0.6s-0.6-0.3-0.6-0.6v-4.1c0-1.2-1-2.2-2.2-2.2c-1.2,0-2.2,1-2.2,2.2v4.1
			c0,0.3,0.1,2.5,2.5,2.5h4.6c0.1,0,0.6,0,1.1,0.3c0.7,0.4,1.1,1.1,1.1,2v5.3C11.1,27.9,10.8,28.2,10.5,28.2z"/>
	</g>
	<g>
		<path class="st0" d="M13.4,15.3c1,0,1.7,0.8,1.7,1.7c0,1-0.8,1.7-1.7,1.7c-1,0-1.7-0.8-1.7-1.7C11.7,16.1,12.5,15.3,13.4,15.3z"/>
		<path d="M13.4,19.4c-1.3,0-2.3-1-2.3-2.3c0-1.3,1-2.3,2.3-2.3c1.3,0,2.3,1,2.3,2.3C15.7,18.3,14.7,19.4,13.4,19.4z M13.4,15.9
			c-0.6,0-1.2,0.5-1.2,1.2c0,0.6,0.5,1.2,1.2,1.2c0.6,0,1.2-0.5,1.2-1.2C14.6,16.4,14.1,15.9,13.4,15.9z"/>
	</g>
</g>
</svg>
