<svg id="Layer_1" data-name="Layer 1" xmlns="http://www.w3.org/2000/svg" width="35" height="35" viewBox="0 0 35 35"><defs><style>.cls-1{fill:#fff;}</style></defs><title>experience</title><polygon points="4.8 0.29 0.54 2.73 4.78 5.21 4.8 0.29"/><path d="M7.76,16.28,8.5,12,5.35,8.89,9.7,8.25l1.94-3.93,1.95,3.93,4.34.64L14.79,12l.74,4.33-3.89-2Zm3.88-3.23,2.49,1.31-.47-2.78,2-2-2.78-.4L11.64,6.69,10.4,9.22l-2.79.4,2,2-.48,2.78Z"/><path d="M15.29,33.09h-11V32h11a.75.75,0,0,0,.74-.75V28.2A1.23,1.23,0,0,1,17.26,27h2.41a1.84,1.84,0,0,0,1.84-1.85l0-4.34a1.25,1.25,0,0,1,1.25-1.25H24a.22.22,0,0,0,.21-.12.22.22,0,0,0,0-.24l-1.37-2.73a13.79,13.79,0,0,1-1.37-4.55c-1.11-9.22-10.2-8.75-10.59-8.73H4.29V2.11h6.54c.06,0,10.43-.57,11.67,9.65A12.4,12.4,0,0,0,23.76,16l1.37,2.73A1.3,1.3,0,0,1,24,20.58H22.73a.21.21,0,0,0-.2.2l0,4.33a2.92,2.92,0,0,1-.84,2.06,2.88,2.88,0,0,1-2,.85H17.26a.18.18,0,0,0-.18.18v3.09A1.8,1.8,0,0,1,15.29,33.09Z"/><path class="cls-1" d="M2.67,32.56a1.62,1.62,0,1,1,1.62,1.62A1.61,1.61,0,0,1,2.67,32.56Z"/><path d="M4.29,34.7a2.14,2.14,0,1,1,2.14-2.14A2.14,2.14,0,0,1,4.29,34.7Zm0-3.23a1.09,1.09,0,1,0,1.09,1.09A1.09,1.09,0,0,0,4.29,31.47Z"/></svg>