<svg id="Layer_1" data-name="Layer 1" xmlns="http://www.w3.org/2000/svg" width="35" height="35" viewBox="0 0 35 35"><defs><style>.cls-1{fill:#fff;}.cls-2{fill:none;}</style></defs><title>innovation</title><polygon points="13.88 29.58 17.56 31.71 13.88 33.84 13.88 29.58"/><polygon points="10.44 29.58 6.75 31.71 10.44 33.84 10.44 29.58"/><path class="cls-1" d="M12.19,11a1.47,1.47,0,1,1-1.46,1.46A1.46,1.46,0,0,1,12.19,11Z"/><path d="M12.19,14.42a1.94,1.94,0,1,1,1.94-1.94A1.94,1.94,0,0,1,12.19,14.42Zm0-2.92a1,1,0,1,0,1,1A1,1,0,0,0,12.19,11.5Z"/><path class="cls-1" d="M9,6.58A1.46,1.46,0,1,1,7.54,8,1.46,1.46,0,0,1,9,6.58Z"/><path d="M9,10A1.94,1.94,0,1,1,11,8,1.94,1.94,0,0,1,9,10ZM9,7.05a1,1,0,1,0,1,1A1,1,0,0,0,9,7.05Z"/><path class="cls-1" d="M6.81,15.75a1.47,1.47,0,1,1-1.47,1.46A1.46,1.46,0,0,1,6.81,15.75Z"/><path d="M6.81,19.15a1.94,1.94,0,1,1,1.94-1.94A1.94,1.94,0,0,1,6.81,19.15Zm0-2.92a1,1,0,1,0,1,1A1,1,0,0,0,6.81,16.23Z"/><path class="cls-1" d="M19.79,10.34a1.47,1.47,0,1,1-1.47,1.46A1.47,1.47,0,0,1,19.79,10.34Z"/><path d="M19.79,13.74a1.94,1.94,0,1,1,1.94-1.94A1.94,1.94,0,0,1,19.79,13.74Zm0-2.92a1,1,0,1,0,1,1A1,1,0,0,0,19.79,10.82Z"/><path d="M18.8,21.37H5.58l-.13-.09a11.19,11.19,0,1,1,17.93-8.93,11.12,11.12,0,0,1-4.45,8.93ZM5.9,20.42H18.48A10.24,10.24,0,1,0,2,12.35,10.17,10.17,0,0,0,5.9,20.42Z"/><rect x="6.02" y="23.42" width="12.6" height="0.95"/><rect x="6.02" y="26.05" width="12.6" height="0.95"/><rect x="6.02" y="28.67" width="12.6" height="0.95"/><rect x="9.01" y="31.23" width="6.62" height="0.95"/><line class="cls-2" x1="9.82" y1="9.25" x2="11.38" y2="11.27"/><polygon points="11 11.56 9.44 9.54 10.2 8.96 11.75 10.98 11 11.56"/><line class="cls-2" x1="11.14" y1="13.5" x2="7.95" y2="16.31"/><rect x="7.42" y="14.42" width="4.25" height="0.95" transform="translate(-7.47 10.04) rotate(-41.41)"/><line class="cls-2" x1="13.66" y1="12.33" x2="18.32" y2="12"/><rect x="13.65" y="11.69" width="4.68" height="0.95" transform="translate(-0.82 1.15) rotate(-4.03)"/></svg>